<mxfile host="www.draw.io" modified="2020-02-14T12:30:50.272Z" agent="Mozilla/5.0 (Macintosh; Intel Mac OS X 10_14_6) AppleWebKit/537.36 (KHTML, like Gecko) Chrome/79.0.3945.130 Safari/537.36" etag="v-_vjVDSLp3fioBng8A8" version="12.7.0" type="github">
  <diagram id="TvnfkEctnOoEaR1RJ19m" name="Page-1">
    <mxGraphModel dx="1033" dy="613" grid="1" gridSize="10" guides="1" tooltips="1" connect="1" arrows="1" fold="1" page="1" pageScale="1" pageWidth="1169" pageHeight="827" math="0" shadow="0">
      <root>
        <mxCell id="0"/>
        <mxCell id="1" parent="0"/>
        <mxCell id="JQr4QtVBLycABVuZhqoW-1" value="TO BE ADDED" style="whiteSpace=wrap;html=1;aspect=fixed;" vertex="1" parent="1">
          <mxGeometry x="20" y="20" width="80" height="80" as="geometry"/>
        </mxCell>
      </root>
    </mxGraphModel>
  </diagram>
</mxfile>
